<mxfile host="app.diagrams.net" agent="Mozilla/5.0 (Windows NT 10.0; Win64; x64; rv:133.0) Gecko/20100101 Firefox/133.0" version="25.0.1">
  <diagram name="Page-1" id="XlonbknDBNnFmrscrlKz">
    <mxGraphModel dx="1674" dy="781" grid="1" gridSize="10" guides="1" tooltips="1" connect="1" arrows="1" fold="1" page="1" pageScale="1" pageWidth="850" pageHeight="1100" math="0" shadow="0">
      <root>
        <mxCell id="0" />
        <mxCell id="1" parent="0" />
        <mxCell id="kjyBiyDVtQhkK5M3wotM-1" value="&lt;div&gt;User&lt;/div&gt;&lt;div&gt;&lt;br&gt;&lt;/div&gt;" style="shape=umlActor;verticalLabelPosition=bottom;verticalAlign=top;html=1;outlineConnect=0;" vertex="1" parent="1">
          <mxGeometry x="150" y="100" width="30" height="60" as="geometry" />
        </mxCell>
        <mxCell id="kjyBiyDVtQhkK5M3wotM-4" style="edgeStyle=orthogonalEdgeStyle;rounded=0;orthogonalLoop=1;jettySize=auto;html=1;exitX=0.5;exitY=1;exitDx=0;exitDy=0;entryX=0.5;entryY=0;entryDx=0;entryDy=0;" edge="1" parent="1" source="kjyBiyDVtQhkK5M3wotM-2" target="kjyBiyDVtQhkK5M3wotM-3">
          <mxGeometry relative="1" as="geometry" />
        </mxCell>
        <mxCell id="kjyBiyDVtQhkK5M3wotM-5" value="&lt;div&gt;upload CSV&lt;/div&gt;" style="edgeLabel;html=1;align=center;verticalAlign=middle;resizable=0;points=[];" vertex="1" connectable="0" parent="kjyBiyDVtQhkK5M3wotM-4">
          <mxGeometry x="-0.2" y="-1" relative="1" as="geometry">
            <mxPoint as="offset" />
          </mxGeometry>
        </mxCell>
        <mxCell id="kjyBiyDVtQhkK5M3wotM-2" value="&lt;div&gt;APP UI&lt;/div&gt;" style="rounded=1;whiteSpace=wrap;html=1;" vertex="1" parent="1">
          <mxGeometry x="190" y="100" width="120" height="60" as="geometry" />
        </mxCell>
        <mxCell id="kjyBiyDVtQhkK5M3wotM-3" value="&lt;div&gt;Upload service&lt;/div&gt;" style="rounded=1;whiteSpace=wrap;html=1;" vertex="1" parent="1">
          <mxGeometry x="190" y="230" width="120" height="60" as="geometry" />
        </mxCell>
        <mxCell id="kjyBiyDVtQhkK5M3wotM-14" style="edgeStyle=orthogonalEdgeStyle;rounded=0;orthogonalLoop=1;jettySize=auto;html=1;exitX=1;exitY=0.5;exitDx=0;exitDy=0;entryX=0.5;entryY=1;entryDx=0;entryDy=0;" edge="1" parent="1" source="kjyBiyDVtQhkK5M3wotM-6" target="kjyBiyDVtQhkK5M3wotM-8">
          <mxGeometry relative="1" as="geometry" />
        </mxCell>
        <mxCell id="kjyBiyDVtQhkK5M3wotM-15" value="&lt;div&gt;predicted data&lt;/div&gt;" style="edgeLabel;html=1;align=center;verticalAlign=middle;resizable=0;points=[];" vertex="1" connectable="0" parent="kjyBiyDVtQhkK5M3wotM-14">
          <mxGeometry x="-0.0558" y="-1" relative="1" as="geometry">
            <mxPoint as="offset" />
          </mxGeometry>
        </mxCell>
        <mxCell id="kjyBiyDVtQhkK5M3wotM-6" value="&lt;div&gt;Data&lt;/div&gt;" style="rounded=1;whiteSpace=wrap;html=1;" vertex="1" parent="1">
          <mxGeometry x="60" y="360" width="120" height="60" as="geometry" />
        </mxCell>
        <mxCell id="kjyBiyDVtQhkK5M3wotM-13" style="edgeStyle=orthogonalEdgeStyle;rounded=0;orthogonalLoop=1;jettySize=auto;html=1;exitX=0.5;exitY=0;exitDx=0;exitDy=0;" edge="1" parent="1" source="kjyBiyDVtQhkK5M3wotM-7" target="kjyBiyDVtQhkK5M3wotM-6">
          <mxGeometry relative="1" as="geometry" />
        </mxCell>
        <mxCell id="kjyBiyDVtQhkK5M3wotM-7" value="Prediction service" style="rounded=1;whiteSpace=wrap;html=1;" vertex="1" parent="1">
          <mxGeometry x="200" y="520" width="120" height="60" as="geometry" />
        </mxCell>
        <mxCell id="kjyBiyDVtQhkK5M3wotM-9" style="edgeStyle=orthogonalEdgeStyle;rounded=0;orthogonalLoop=1;jettySize=auto;html=1;exitX=0;exitY=0;exitDx=0;exitDy=0;entryX=1;entryY=0.5;entryDx=0;entryDy=0;" edge="1" parent="1" source="kjyBiyDVtQhkK5M3wotM-8" target="kjyBiyDVtQhkK5M3wotM-2">
          <mxGeometry relative="1" as="geometry" />
        </mxCell>
        <mxCell id="kjyBiyDVtQhkK5M3wotM-8" value="Display prediction" style="rounded=1;whiteSpace=wrap;html=1;" vertex="1" parent="1">
          <mxGeometry x="450" y="230" width="120" height="60" as="geometry" />
        </mxCell>
        <mxCell id="kjyBiyDVtQhkK5M3wotM-10" style="edgeStyle=orthogonalEdgeStyle;rounded=0;orthogonalLoop=1;jettySize=auto;html=1;exitX=0;exitY=1;exitDx=0;exitDy=0;entryX=0.842;entryY=-0.017;entryDx=0;entryDy=0;entryPerimeter=0;" edge="1" parent="1" source="kjyBiyDVtQhkK5M3wotM-3" target="kjyBiyDVtQhkK5M3wotM-6">
          <mxGeometry relative="1" as="geometry" />
        </mxCell>
        <mxCell id="kjyBiyDVtQhkK5M3wotM-11" value="csv data" style="edgeLabel;html=1;align=center;verticalAlign=middle;resizable=0;points=[];" vertex="1" connectable="0" parent="kjyBiyDVtQhkK5M3wotM-10">
          <mxGeometry x="-0.0202" y="-1" relative="1" as="geometry">
            <mxPoint as="offset" />
          </mxGeometry>
        </mxCell>
      </root>
    </mxGraphModel>
  </diagram>
</mxfile>
